<svg xmlns="http://www.w3.org/2000/svg" xmlns:xlink="http://www.w3.org/1999/xlink" viewBox="0 0 81 82" fill="#fff" fill-rule="evenodd" stroke="#000" stroke-linecap="round" stroke-linejoin="round"><use xlink:href="#A" x=".5" y=".5"/><symbol id="A" overflow="visible"><path d="M76.923 55.718H3.077C1.346 55.718 0 57.036 0 58.73V77c0 1.693 1.346 3 3.077 3h73.846C78.654 80 80 78.683 80 77V58.73c0-1.694-1.346-3.012-3.077-3.012zM6.73 77c-1.54 0-2.885-1.318-2.885-2.824s1.346-2.823 2.885-2.823 2.885 1.317 2.885 2.823S8.27 77 6.73 77zm67.307-1.13H57.885c-.577 0-.96-.376-.96-.94s.385-.94.96-.94H74.04c.577 0 .962.377.962.94s-.385.94-.962.94zm0-3.012H57.885c-.577 0-.96-.376-.96-.94s.385-.94.96-.94H74.04c.577 0 .962.376.962.94s-.385.94-.962.94zm0-3.012H57.885c-.577 0-.96-.376-.96-.94s.385-.94.96-.94H74.04c.577 0 .962.376.962.94s-.385.94-.962.94zm2.886-41.976H3.077c-1.73 0-3.077 1.317-3.077 3v18.26c0 1.694 1.346 3.012 3.077 3.012h73.846c1.73 0 3.077-1.318 3.077-3.012V30.87c0-1.694-1.346-3.012-3.077-3.012zM6.73 49.13c-1.54 0-2.885-1.318-2.885-2.824s1.346-2.823 2.885-2.823 2.885 1.318 2.885 2.823S8.27 49.13 6.73 49.13zM74.038 48H57.885c-.577 0-.96-.376-.96-.94s.385-.94.96-.94H74.04c.577 0 .962.377.962.94s-.385.94-.962.94zm0-3.012H57.885c-.577 0-.96-.377-.96-.94s.385-.94.96-.94H74.04c.577 0 .962.377.962.94s-.385.94-.962.94zm0-3.012H57.885c-.577 0-.96-.377-.96-.94s.385-.94.96-.94H74.04c.577 0 .962.377.962.94s-.385.94-.962.94zM76.923 0H3.077C1.346 0 0 1.318 0 3.012v18.26c0 1.694 1.346 3.012 3.077 3.012h73.846c1.73 0 3.077-1.317 3.077-3.012V3.012C80 1.318 78.654 0 76.923 0zM6.73 21.27c-1.54 0-2.885-1.318-2.885-2.824s1.346-2.823 2.885-2.823 2.885 1.317 2.885 2.823S8.27 21.27 6.73 21.27zm67.307-1.13H57.885c-.577 0-.96-.377-.96-.94s.385-.94.96-.94H74.04c.577 0 .962.377.962.94s-.385.94-.962.94zm0-3.012H57.885c-.577 0-.96-.377-.96-.94s.385-.94.96-.94H74.04c.577 0 .962.377.962.94s-.385.94-.962.94zm0-3.012H57.885c-.577 0-.96-.377-.96-.94s.385-.94.96-.94H74.04c.577 0 .962.377.962.94 0 .377-.385.94-.962.94z" fill="#2a3282" stroke="none"/></symbol></svg>