<svg xmlns="http://www.w3.org/2000/svg" xmlns:xlink="http://www.w3.org/1999/xlink" viewBox="0 0 60 66" fill="#fff" fill-rule="evenodd" stroke="#000" stroke-linecap="round" stroke-linejoin="round"><use xlink:href="#A" x="1" y="1"/><symbol id="A" overflow="visible"><g stroke="none" fill-rule="nonzero"><path d="M55.932 49.326L29.992 64V52.574l16.16-8.892zm1.776-1.606V17.04l-9.488 5.484v19.724zM1.776 49.326L27.712 64V52.574l-16.17-8.894zM0 47.72V17.04l9.488 5.484v19.724zm1.112-32.672L27.712 0v11.044l-17.2 9.456zm55.48 0L29.992 0v11.044l17.2 9.446z" fill="#8ed6fb"/><path d="M27.712 50.474L11.764 41.7V24.332l15.948 9.208zm2.28 0l15.95-8.766v-17.4l-15.95 9.232zm-1.14-17.6zm-16.008-10.55l16.008-8.798 16.008 8.8-16.008 9.24z" fill="#1c78c0"/></g></symbol></svg>