<svg xmlns="http://www.w3.org/2000/svg" xmlns:xlink="http://www.w3.org/1999/xlink" viewBox="0 0 63.75 85" fill="#fff" fill-rule="evenodd" stroke="#000" stroke-linecap="round" stroke-linejoin="round"><use xlink:href="#A" x="1.875" y="2.5"/><symbol id="A" overflow="visible"><g stroke="none"><path d="M60 15H0l5 57.5L30 80l25-7.5L60 15" fill="#e44d26"/><path d="M7 0v11h3V7h4v4h3V0h-3v4h-4V0zm24 0v11h3V5l2.5 4L39 5v6h3V0h-3l-2.5 3.5L34 0zm13 0v11h9V8h-6V0z" fill="#000"/><path d="M22.366 65.2l-8.214-2.464-.9-10.245h8l.436 5L30 60v7.5zM30 32.5H19.522l.652 7.5H30v7.5H12.827L10.87 25H30z" fill="#ebebeb"/><path d="M51.74 52.5L54.565 20H30v55l20.313-6.094 1.34-15.402z" fill="#f16529"/><path d="M19 0v3h3.5v8h3V3H29V0z" fill="#000"/><path d="M30 32.5h18.478l.652-7.5H30zm9.174 15H30V40h17.826l-1.978 22.746L30 67.5V60l8.304-2.5.435-5z"/></g></symbol></svg>